<mxfile host="app.diagrams.net" modified="2021-06-13T19:11:27.153Z" agent="5.0 (Macintosh; Intel Mac OS X 10_15_7) AppleWebKit/537.36 (KHTML, like Gecko) Chrome/91.0.4472.77 Safari/537.36" etag="W2HN1ojYJCmguqjgF2Xx" version="14.7.6" type="github">
  <diagram id="A4IyuPG652XMWRJrlPqJ" name="Page-1">
    <mxGraphModel dx="2017" dy="769" grid="1" gridSize="10" guides="1" tooltips="1" connect="1" arrows="1" fold="1" page="1" pageScale="1" pageWidth="850" pageHeight="1100" math="0" shadow="0">
      <root>
        <mxCell id="0" />
        <mxCell id="1" parent="0" />
        <mxCell id="AMxbkQby5Cz6vdSXOQPv-5" value="To: Address 1" style="edgeStyle=orthogonalEdgeStyle;rounded=0;orthogonalLoop=1;jettySize=auto;html=1;entryX=0;entryY=0.25;entryDx=0;entryDy=0;exitX=1;exitY=0.25;exitDx=0;exitDy=0;" edge="1" parent="1" source="AMxbkQby5Cz6vdSXOQPv-2" target="AMxbkQby5Cz6vdSXOQPv-1">
          <mxGeometry x="-0.0769" y="15" relative="1" as="geometry">
            <mxPoint as="offset" />
          </mxGeometry>
        </mxCell>
        <mxCell id="AMxbkQby5Cz6vdSXOQPv-1" value="nRF Receiver" style="rounded=0;whiteSpace=wrap;html=1;align=center;" vertex="1" parent="1">
          <mxGeometry x="320" y="80" width="120" height="60" as="geometry" />
        </mxCell>
        <mxCell id="AMxbkQby5Cz6vdSXOQPv-6" style="edgeStyle=orthogonalEdgeStyle;rounded=0;orthogonalLoop=1;jettySize=auto;html=1;exitX=0;exitY=0.75;exitDx=0;exitDy=0;entryX=1;entryY=0.75;entryDx=0;entryDy=0;" edge="1" parent="1" source="AMxbkQby5Cz6vdSXOQPv-1" target="AMxbkQby5Cz6vdSXOQPv-2">
          <mxGeometry relative="1" as="geometry" />
        </mxCell>
        <mxCell id="AMxbkQby5Cz6vdSXOQPv-7" value="ACK From: Address 1" style="edgeLabel;html=1;align=center;verticalAlign=middle;resizable=0;points=[];" vertex="1" connectable="0" parent="AMxbkQby5Cz6vdSXOQPv-6">
          <mxGeometry x="0.1538" relative="1" as="geometry">
            <mxPoint x="5" y="-15" as="offset" />
          </mxGeometry>
        </mxCell>
        <mxCell id="AMxbkQby5Cz6vdSXOQPv-2" value="nRF Sender" style="rounded=0;whiteSpace=wrap;html=1;align=center;" vertex="1" parent="1">
          <mxGeometry x="70" y="80" width="120" height="60" as="geometry" />
        </mxCell>
        <mxCell id="AMxbkQby5Cz6vdSXOQPv-3" value="Address: 2" style="text;html=1;align=center;verticalAlign=middle;resizable=0;points=[];autosize=1;strokeColor=none;" vertex="1" parent="1">
          <mxGeometry x="95" y="60" width="70" height="20" as="geometry" />
        </mxCell>
        <mxCell id="AMxbkQby5Cz6vdSXOQPv-4" value="Address: 1" style="text;html=1;align=center;verticalAlign=middle;resizable=0;points=[];autosize=1;strokeColor=none;" vertex="1" parent="1">
          <mxGeometry x="350" y="60" width="70" height="20" as="geometry" />
        </mxCell>
        <mxCell id="AMxbkQby5Cz6vdSXOQPv-8" value="RX: 1" style="text;html=1;align=center;verticalAlign=middle;resizable=0;points=[];autosize=1;strokeColor=none;" vertex="1" parent="1">
          <mxGeometry x="320" y="80" width="50" height="20" as="geometry" />
        </mxCell>
        <mxCell id="AMxbkQby5Cz6vdSXOQPv-9" value="TX: 1" style="text;html=1;align=center;verticalAlign=middle;resizable=0;points=[];autosize=1;strokeColor=none;" vertex="1" parent="1">
          <mxGeometry x="150" y="80" width="40" height="20" as="geometry" />
        </mxCell>
        <mxCell id="AMxbkQby5Cz6vdSXOQPv-10" value="RX: 1" style="text;html=1;align=center;verticalAlign=middle;resizable=0;points=[];autosize=1;strokeColor=none;" vertex="1" parent="1">
          <mxGeometry x="145" y="120" width="50" height="20" as="geometry" />
        </mxCell>
      </root>
    </mxGraphModel>
  </diagram>
</mxfile>
